<svg viewBox="0 0 16 16" xmlns="http://www.w3.org/2000/svg" style="width: 16px; height: 16px; display: block; fill: rgba(55, 53, 47, 0.85); flex-shrink: 0; backface-visibility: hidden;"><path d="M1.25293 6.82031C1.25293 9.88965 3.74805 12.3848 6.81738 12.3848C7.95898 12.3848 9.00488 12.0361 9.87988 11.4414L13.0244 14.5859C13.2158 14.7842 13.4824 14.873 13.749 14.873C14.3301 14.873 14.7471 14.4355 14.7471 13.8682C14.7471 13.5947 14.6514 13.3418 14.4668 13.1504L11.3428 10.0195C11.9922 9.12402 12.3818 8.0166 12.3818 6.82031C12.3818 3.75098 9.88672 1.25586 6.81738 1.25586C3.74805 1.25586 1.25293 3.75098 1.25293 6.82031ZM2.70215 6.82031C2.70215 4.55078 4.54102 2.70508 6.81738 2.70508C9.08691 2.70508 10.9326 4.55078 10.9326 6.82031C10.9326 9.08984 9.08691 10.9355 6.81738 10.9355C4.54102 10.9355 2.70215 9.08984 2.70215 6.82031ZM4.52051 6.82031C4.52051 7.12109 4.75293 7.35352 5.05371 7.35352H6.27734V8.58398C6.27734 8.88477 6.5166 9.11719 6.81738 9.11719C7.11816 9.11719 7.35059 8.87793 7.35059 8.58398V7.35352H8.58105C8.875 7.35352 9.11426 7.12109 9.11426 6.82031C9.11426 6.51953 8.875 6.28711 8.58105 6.28711H7.35059V5.05664C7.35059 4.7627 7.11133 4.52344 6.81738 4.52344C6.5166 4.52344 6.27734 4.7627 6.27734 5.05664V6.28711H5.05371C4.75293 6.28711 4.52051 6.51953 4.52051 6.82031Z"></path></svg>